<?xml version="1.0" standalone="no"?>
<!DOCTYPE svg PUBLIC "-//W3C//DTD SVG 20010904//EN"
 "http://www.w3.org/TR/2001/REC-SVG-20010904/DTD/svg10.dtd">
<svg version="1.0" xmlns="http://www.w3.org/2000/svg"
 width="128.000000pt" height="128.000000pt" viewBox="0 0 128.000000 128.000000"
 preserveAspectRatio="xMidYMid meet">
<metadata>
Created by potrace 1.14, written by Peter Selinger 2001-2017
</metadata>
<g transform="translate(0.000000,128.000000) scale(0.100000,-0.100000)"
fill="#000000" stroke="none">
<path d="M570 1260 c-30 -4 -80 -14 -110 -23 -59 -18 -173 -78 -171 -90 1 -4
-5 -20 -14 -37 -8 -16 -15 -31 -15 -34 0 -2 29 15 64 39 175 117 392 132 578
39 40 -21 50 -22 71 -11 l25 13 -41 26 c-64 39 -147 66 -239 78 -45 5 -85 9
-88 9 -3 -1 -30 -5 -60 -9z"/>
<path d="M540 870 l0 -100 -47 0 c-134 -1 -216 -146 -153 -270 20 -38 67 -80
91 -80 7 0 0 -14 -17 -31 -24 -26 -25 -30 -9 -25 12 3 42 -5 73 -19 63 -29 85
-31 106 -9 23 23 20 31 -12 26 -16 -2 -46 3 -66 12 -21 9 -47 16 -58 16 -29 0
-11 20 20 21 19 1 21 3 8 6 -16 4 -14 9 15 41 l34 37 -40 -38 -41 -37 -31 32
c-40 41 -53 76 -53 139 0 100 56 169 136 169 l44 0 0 -85 c0 -78 2 -85 20 -85
17 0 19 8 22 68 l3 67 22 -45 c50 -101 8 -232 -83 -260 -26 -7 -26 -8 -6 -9
30 -1 71 20 104 56 69 73 64 187 -11 257 -31 30 -31 30 -31 133 l0 103 74 0
c65 0 79 -3 103 -24 22 -19 28 -32 28 -66 0 -54 -37 -90 -94 -90 -20 0 -46 -7
-57 -16 -18 -14 -18 -15 4 -4 28 14 54 -5 82 -60 17 -33 17 -35 -3 -62 -26
-34 -35 -134 -17 -178 18 -43 82 -97 131 -110 70 -19 179 11 179 50 0 19 -3
19 -40 -11 -50 -41 -122 -46 -167 -13 -60 44 -91 156 -63 230 l11 27 15 -21
c8 -12 26 -22 39 -22 l24 0 -25 44 -25 45 30 15 c74 39 161 6 161 -60 0 -32 2
-34 21 -24 28 16 21 57 -13 83 -37 27 -135 35 -176 14 -30 -14 -30 -14 -51 24
l-22 38 34 15 c62 25 82 78 53 135 -22 41 -55 51 -171 51 l-105 0 0 -100z"/>
<path d="M44 815 c-14 -45 -19 -91 -19 -182 0 -67 3 -125 7 -129 4 -4 14 -1
23 6 11 10 15 35 15 109 0 53 6 122 14 154 7 31 10 57 6 57 -4 0 -12 10 -17
23 -10 20 -12 16 -29 -38z"/>
<path d="M1230 777 c-12 -10 -15 -37 -15 -132 0 -66 -3 -136 -7 -155 -6 -29
-6 -32 4 -15 13 24 29 35 39 29 22 -13 25 255 3 275 -5 6 -15 5 -24 -2z"/>
<path d="M1216 429 c-11 -11 -22 -17 -24 -14 -3 2 -21 -23 -41 -58 -103 -179
-304 -296 -511 -297 -38 0 -63 -6 -79 -19 l-25 -19 58 -7 c68 -9 187 8 265 38
150 56 274 165 342 302 23 47 40 87 38 89 -2 2 -13 -5 -23 -15z"/>
<path d="M122 340 c-15 -25 -7 -44 51 -113 37 -45 142 -127 179 -140 10 -3 29
0 42 7 l25 13 -32 15 c-60 29 -154 108 -198 165 -23 32 -46 61 -49 65 -3 4
-11 -1 -18 -12z"/>
<path d="M663 220 c0 -30 2 -43 4 -27 2 15 2 39 0 55 -2 15 -4 2 -4 -28z"/>
<path d="M502 225 c11 -20 23 -34 25 -31 6 6 -29 66 -39 66 -4 0 2 -16 14 -35z"/>
<path d="M563 215 c0 -27 2 -38 4 -22 2 15 2 37 0 50 -2 12 -4 0 -4 -28z"/>
<path d="M628 200 c2 -16 6 -30 8 -30 2 0 4 14 4 30 0 17 -4 30 -8 30 -5 0 -7
-13 -4 -30z"/>
<path d="M765 220 c3 -5 8 -10 11 -10 2 0 4 5 4 10 0 6 -5 10 -11 10 -5 0 -7
-4 -4 -10z"/>
<path d="M798 200 c2 -16 6 -30 8 -30 2 0 4 14 4 30 0 17 -4 30 -8 30 -5 0 -7
-13 -4 -30z"/>
<path d="M726 211 c-11 -17 6 -41 28 -40 20 0 20 1 -3 10 -15 6 -21 15 -17 24
6 16 0 20 -8 6z"/>
<path d="M690 190 c6 -11 13 -20 16 -20 2 0 0 9 -6 20 -6 11 -13 20 -16 20 -2
0 0 -9 6 -20z"/>
<path d="M590 187 c0 -10 8 -17 18 -17 9 0 13 4 7 8 -5 4 -13 11 -17 16 -5 5
-8 2 -8 -7z"/>
</g>
</svg>
