<?xml version="1.0" encoding="utf-8"?>
<!DOCTYPE svg PUBLIC "-//W3C//DTD SVG 1.1//EN" "http://www.w3.org/Graphics/SVG/1.1/DTD/svg11.dtd">
<svg version="1.1" id="Layer_1" xmlns="http://www.w3.org/2000/svg" xmlns:xlink="http://www.w3.org/1999/xlink" x="0px" y="0px"
width="2277px" height="2277px" viewBox="0 0 2277 2277" enable-background="new 0 0 2277 2277" xml:space="preserve">
<rect x="0" y="0" width="2277" height="2277" fill="rgb(255,255,255)" /><g transform="translate(138,138)"><g transform="translate(552,0) scale(0.69,0.69)"><g transform="" style="fill: rgb(0, 0, 0);">
<rect width="100" height="100"/>
</g></g><g transform="translate(621,0) scale(0.69,0.69)"><g transform="" style="fill: rgb(0, 0, 0);">
<rect width="100" height="100"/>
</g></g><g transform="translate(690,0) scale(0.69,0.69)"><g transform="" style="fill: rgb(0, 0, 0);">
<rect width="100" height="100"/>
</g></g><g transform="translate(1035,0) scale(0.69,0.69)"><g transform="" style="fill: rgb(0, 0, 0);">
<rect width="100" height="100"/>
</g></g><g transform="translate(1104,0) scale(0.69,0.69)"><g transform="" style="fill: rgb(0, 0, 0);">
<rect width="100" height="100"/>
</g></g><g transform="translate(1173,0) scale(0.69,0.69)"><g transform="" style="fill: rgb(0, 0, 0);">
<rect width="100" height="100"/>
</g></g><g transform="translate(690,69) scale(0.69,0.69)"><g transform="" style="fill: rgb(0, 0, 0);">
<rect width="100" height="100"/>
</g></g><g transform="translate(759,69) scale(0.69,0.69)"><g transform="" style="fill: rgb(0, 0, 0);">
<rect width="100" height="100"/>
</g></g><g transform="translate(828,69) scale(0.69,0.69)"><g transform="" style="fill: rgb(0, 0, 0);">
<rect width="100" height="100"/>
</g></g><g transform="translate(897,69) scale(0.69,0.69)"><g transform="" style="fill: rgb(0, 0, 0);">
<rect width="100" height="100"/>
</g></g><g transform="translate(966,69) scale(0.69,0.69)"><g transform="" style="fill: rgb(0, 0, 0);">
<rect width="100" height="100"/>
</g></g><g transform="translate(1104,69) scale(0.69,0.69)"><g transform="" style="fill: rgb(0, 0, 0);">
<rect width="100" height="100"/>
</g></g><g transform="translate(1173,69) scale(0.69,0.69)"><g transform="" style="fill: rgb(0, 0, 0);">
<rect width="100" height="100"/>
</g></g><g transform="translate(1380,69) scale(0.69,0.69)"><g transform="" style="fill: rgb(0, 0, 0);">
<rect width="100" height="100"/>
</g></g><g transform="translate(552,138) scale(0.69,0.69)"><g transform="" style="fill: rgb(0, 0, 0);">
<rect width="100" height="100"/>
</g></g><g transform="translate(690,138) scale(0.69,0.69)"><g transform="" style="fill: rgb(0, 0, 0);">
<rect width="100" height="100"/>
</g></g><g transform="translate(759,138) scale(0.69,0.69)"><g transform="" style="fill: rgb(0, 0, 0);">
<rect width="100" height="100"/>
</g></g><g transform="translate(966,138) scale(0.69,0.69)"><g transform="" style="fill: rgb(0, 0, 0);">
<rect width="100" height="100"/>
</g></g><g transform="translate(1035,138) scale(0.69,0.69)"><g transform="" style="fill: rgb(0, 0, 0);">
<rect width="100" height="100"/>
</g></g><g transform="translate(1104,138) scale(0.69,0.69)"><g transform="" style="fill: rgb(0, 0, 0);">
<rect width="100" height="100"/>
</g></g><g transform="translate(1173,138) scale(0.69,0.69)"><g transform="" style="fill: rgb(0, 0, 0);">
<rect width="100" height="100"/>
</g></g><g transform="translate(1380,138) scale(0.69,0.69)"><g transform="" style="fill: rgb(0, 0, 0);">
<rect width="100" height="100"/>
</g></g><g transform="translate(621,207) scale(0.69,0.69)"><g transform="" style="fill: rgb(0, 0, 0);">
<rect width="100" height="100"/>
</g></g><g transform="translate(690,207) scale(0.69,0.69)"><g transform="" style="fill: rgb(0, 0, 0);">
<rect width="100" height="100"/>
</g></g><g transform="translate(828,207) scale(0.69,0.69)"><g transform="" style="fill: rgb(0, 0, 0);">
<rect width="100" height="100"/>
</g></g><g transform="translate(966,207) scale(0.69,0.69)"><g transform="" style="fill: rgb(0, 0, 0);">
<rect width="100" height="100"/>
</g></g><g transform="translate(1173,207) scale(0.69,0.69)"><g transform="" style="fill: rgb(0, 0, 0);">
<rect width="100" height="100"/>
</g></g><g transform="translate(1311,207) scale(0.69,0.69)"><g transform="" style="fill: rgb(0, 0, 0);">
<rect width="100" height="100"/>
</g></g><g transform="translate(621,276) scale(0.69,0.69)"><g transform="" style="fill: rgb(0, 0, 0);">
<rect width="100" height="100"/>
</g></g><g transform="translate(690,276) scale(0.69,0.69)"><g transform="" style="fill: rgb(0, 0, 0);">
<rect width="100" height="100"/>
</g></g><g transform="translate(759,276) scale(0.69,0.69)"><g transform="" style="fill: rgb(0, 0, 0);">
<rect width="100" height="100"/>
</g></g><g transform="translate(897,276) scale(0.69,0.69)"><g transform="" style="fill: rgb(0, 0, 0);">
<rect width="100" height="100"/>
</g></g><g transform="translate(966,276) scale(0.69,0.69)"><g transform="" style="fill: rgb(0, 0, 0);">
<rect width="100" height="100"/>
</g></g><g transform="translate(1035,276) scale(0.69,0.69)"><g transform="" style="fill: rgb(0, 0, 0);">
<rect width="100" height="100"/>
</g></g><g transform="translate(1242,276) scale(0.69,0.69)"><g transform="" style="fill: rgb(0, 0, 0);">
<rect width="100" height="100"/>
</g></g><g transform="translate(552,345) scale(0.69,0.69)"><g transform="" style="fill: rgb(0, 0, 0);">
<rect width="100" height="100"/>
</g></g><g transform="translate(690,345) scale(0.69,0.69)"><g transform="" style="fill: rgb(0, 0, 0);">
<rect width="100" height="100"/>
</g></g><g transform="translate(759,345) scale(0.69,0.69)"><g transform="" style="fill: rgb(0, 0, 0);">
<rect width="100" height="100"/>
</g></g><g transform="translate(828,345) scale(0.69,0.69)"><g transform="" style="fill: rgb(0, 0, 0);">
<rect width="100" height="100"/>
</g></g><g transform="translate(1035,345) scale(0.69,0.69)"><g transform="" style="fill: rgb(0, 0, 0);">
<rect width="100" height="100"/>
</g></g><g transform="translate(1173,345) scale(0.69,0.69)"><g transform="" style="fill: rgb(0, 0, 0);">
<rect width="100" height="100"/>
</g></g><g transform="translate(1242,345) scale(0.69,0.69)"><g transform="" style="fill: rgb(0, 0, 0);">
<rect width="100" height="100"/>
</g></g><g transform="translate(552,414) scale(0.69,0.69)"><g transform="" style="fill: rgb(0, 0, 0);">
<rect width="100" height="100"/>
</g></g><g transform="translate(690,414) scale(0.69,0.69)"><g transform="" style="fill: rgb(0, 0, 0);">
<rect width="100" height="100"/>
</g></g><g transform="translate(828,414) scale(0.69,0.69)"><g transform="" style="fill: rgb(0, 0, 0);">
<rect width="100" height="100"/>
</g></g><g transform="translate(966,414) scale(0.69,0.69)"><g transform="" style="fill: rgb(0, 0, 0);">
<rect width="100" height="100"/>
</g></g><g transform="translate(1104,414) scale(0.69,0.69)"><g transform="" style="fill: rgb(0, 0, 0);">
<rect width="100" height="100"/>
</g></g><g transform="translate(1242,414) scale(0.69,0.69)"><g transform="" style="fill: rgb(0, 0, 0);">
<rect width="100" height="100"/>
</g></g><g transform="translate(1380,414) scale(0.69,0.69)"><g transform="" style="fill: rgb(0, 0, 0);">
<rect width="100" height="100"/>
</g></g><g transform="translate(621,483) scale(0.69,0.69)"><g transform="" style="fill: rgb(0, 0, 0);">
<rect width="100" height="100"/>
</g></g><g transform="translate(759,483) scale(0.69,0.69)"><g transform="" style="fill: rgb(0, 0, 0);">
<rect width="100" height="100"/>
</g></g><g transform="translate(828,483) scale(0.69,0.69)"><g transform="" style="fill: rgb(0, 0, 0);">
<rect width="100" height="100"/>
</g></g><g transform="translate(966,483) scale(0.69,0.69)"><g transform="" style="fill: rgb(0, 0, 0);">
<rect width="100" height="100"/>
</g></g><g transform="translate(1035,483) scale(0.69,0.69)"><g transform="" style="fill: rgb(0, 0, 0);">
<rect width="100" height="100"/>
</g></g><g transform="translate(1104,483) scale(0.69,0.69)"><g transform="" style="fill: rgb(0, 0, 0);">
<rect width="100" height="100"/>
</g></g><g transform="translate(1311,483) scale(0.69,0.69)"><g transform="" style="fill: rgb(0, 0, 0);">
<rect width="100" height="100"/>
</g></g><g transform="translate(1380,483) scale(0.69,0.69)"><g transform="" style="fill: rgb(0, 0, 0);">
<rect width="100" height="100"/>
</g></g><g transform="translate(0,552) scale(0.69,0.69)"><g transform="" style="fill: rgb(0, 0, 0);">
<rect width="100" height="100"/>
</g></g><g transform="translate(138,552) scale(0.69,0.69)"><g transform="" style="fill: rgb(0, 0, 0);">
<rect width="100" height="100"/>
</g></g><g transform="translate(414,552) scale(0.69,0.69)"><g transform="" style="fill: rgb(0, 0, 0);">
<rect width="100" height="100"/>
</g></g><g transform="translate(483,552) scale(0.69,0.69)"><g transform="" style="fill: rgb(0, 0, 0);">
<rect width="100" height="100"/>
</g></g><g transform="translate(897,552) scale(0.69,0.69)"><g transform="" style="fill: rgb(0, 0, 0);">
<rect width="100" height="100"/>
</g></g><g transform="translate(966,552) scale(0.69,0.69)"><g transform="" style="fill: rgb(0, 0, 0);">
<rect width="100" height="100"/>
</g></g><g transform="translate(1380,552) scale(0.69,0.69)"><g transform="" style="fill: rgb(0, 0, 0);">
<rect width="100" height="100"/>
</g></g><g transform="translate(1587,552) scale(0.69,0.69)"><g transform="" style="fill: rgb(0, 0, 0);">
<rect width="100" height="100"/>
</g></g><g transform="translate(1794,552) scale(0.69,0.69)"><g transform="" style="fill: rgb(0, 0, 0);">
<rect width="100" height="100"/>
</g></g><g transform="translate(1932,552) scale(0.69,0.69)"><g transform="" style="fill: rgb(0, 0, 0);">
<rect width="100" height="100"/>
</g></g><g transform="translate(0,621) scale(0.69,0.69)"><g transform="" style="fill: rgb(0, 0, 0);">
<rect width="100" height="100"/>
</g></g><g transform="translate(69,621) scale(0.69,0.69)"><g transform="" style="fill: rgb(0, 0, 0);">
<rect width="100" height="100"/>
</g></g><g transform="translate(138,621) scale(0.69,0.69)"><g transform="" style="fill: rgb(0, 0, 0);">
<rect width="100" height="100"/>
</g></g><g transform="translate(207,621) scale(0.69,0.69)"><g transform="" style="fill: rgb(0, 0, 0);">
<rect width="100" height="100"/>
</g></g><g transform="translate(345,621) scale(0.69,0.69)"><g transform="" style="fill: rgb(0, 0, 0);">
<rect width="100" height="100"/>
</g></g><g transform="translate(483,621) scale(0.69,0.69)"><g transform="" style="fill: rgb(0, 0, 0);">
<rect width="100" height="100"/>
</g></g><g transform="translate(621,621) scale(0.69,0.69)"><g transform="" style="fill: rgb(0, 0, 0);">
<rect width="100" height="100"/>
</g></g><g transform="translate(897,621) scale(0.69,0.69)"><g transform="" style="fill: rgb(0, 0, 0);">
<rect width="100" height="100"/>
</g></g><g transform="translate(966,621) scale(0.69,0.69)"><g transform="" style="fill: rgb(0, 0, 0);">
<rect width="100" height="100"/>
</g></g><g transform="translate(1311,621) scale(0.69,0.69)"><g transform="" style="fill: rgb(0, 0, 0);">
<rect width="100" height="100"/>
</g></g><g transform="translate(1380,621) scale(0.69,0.69)"><g transform="" style="fill: rgb(0, 0, 0);">
<rect width="100" height="100"/>
</g></g><g transform="translate(1518,621) scale(0.69,0.69)"><g transform="" style="fill: rgb(0, 0, 0);">
<rect width="100" height="100"/>
</g></g><g transform="translate(1587,621) scale(0.69,0.69)"><g transform="" style="fill: rgb(0, 0, 0);">
<rect width="100" height="100"/>
</g></g><g transform="translate(1863,621) scale(0.69,0.69)"><g transform="" style="fill: rgb(0, 0, 0);">
<rect width="100" height="100"/>
</g></g><g transform="translate(1932,621) scale(0.69,0.69)"><g transform="" style="fill: rgb(0, 0, 0);">
<rect width="100" height="100"/>
</g></g><g transform="translate(69,690) scale(0.69,0.69)"><g transform="" style="fill: rgb(0, 0, 0);">
<rect width="100" height="100"/>
</g></g><g transform="translate(138,690) scale(0.69,0.69)"><g transform="" style="fill: rgb(0, 0, 0);">
<rect width="100" height="100"/>
</g></g><g transform="translate(207,690) scale(0.69,0.69)"><g transform="" style="fill: rgb(0, 0, 0);">
<rect width="100" height="100"/>
</g></g><g transform="translate(276,690) scale(0.69,0.69)"><g transform="" style="fill: rgb(0, 0, 0);">
<rect width="100" height="100"/>
</g></g><g transform="translate(414,690) scale(0.69,0.69)"><g transform="" style="fill: rgb(0, 0, 0);">
<rect width="100" height="100"/>
</g></g><g transform="translate(483,690) scale(0.69,0.69)"><g transform="" style="fill: rgb(0, 0, 0);">
<rect width="100" height="100"/>
</g></g><g transform="translate(759,690) scale(0.69,0.69)"><g transform="" style="fill: rgb(0, 0, 0);">
<rect width="100" height="100"/>
</g></g><g transform="translate(828,690) scale(0.69,0.69)"><g transform="" style="fill: rgb(0, 0, 0);">
<rect width="100" height="100"/>
</g></g><g transform="translate(1035,690) scale(0.69,0.69)"><g transform="" style="fill: rgb(0, 0, 0);">
<rect width="100" height="100"/>
</g></g><g transform="translate(1242,690) scale(0.69,0.69)"><g transform="" style="fill: rgb(0, 0, 0);">
<rect width="100" height="100"/>
</g></g><g transform="translate(1311,690) scale(0.69,0.69)"><g transform="" style="fill: rgb(0, 0, 0);">
<rect width="100" height="100"/>
</g></g><g transform="translate(1587,690) scale(0.69,0.69)"><g transform="" style="fill: rgb(0, 0, 0);">
<rect width="100" height="100"/>
</g></g><g transform="translate(1725,690) scale(0.69,0.69)"><g transform="" style="fill: rgb(0, 0, 0);">
<rect width="100" height="100"/>
</g></g><g transform="translate(1794,690) scale(0.69,0.69)"><g transform="" style="fill: rgb(0, 0, 0);">
<rect width="100" height="100"/>
</g></g><g transform="translate(1932,690) scale(0.69,0.69)"><g transform="" style="fill: rgb(0, 0, 0);">
<rect width="100" height="100"/>
</g></g><g transform="translate(0,759) scale(0.69,0.69)"><g transform="" style="fill: rgb(0, 0, 0);">
<rect width="100" height="100"/>
</g></g><g transform="translate(276,759) scale(0.69,0.69)"><g transform="" style="fill: rgb(0, 0, 0);">
<rect width="100" height="100"/>
</g></g><g transform="translate(483,759) scale(0.69,0.69)"><g transform="" style="fill: rgb(0, 0, 0);">
<rect width="100" height="100"/>
</g></g><g transform="translate(552,759) scale(0.69,0.69)"><g transform="" style="fill: rgb(0, 0, 0);">
<rect width="100" height="100"/>
</g></g><g transform="translate(621,759) scale(0.69,0.69)"><g transform="" style="fill: rgb(0, 0, 0);">
<rect width="100" height="100"/>
</g></g><g transform="translate(690,759) scale(0.69,0.69)"><g transform="" style="fill: rgb(0, 0, 0);">
<rect width="100" height="100"/>
</g></g><g transform="translate(759,759) scale(0.69,0.69)"><g transform="" style="fill: rgb(0, 0, 0);">
<rect width="100" height="100"/>
</g></g><g transform="translate(828,759) scale(0.69,0.69)"><g transform="" style="fill: rgb(0, 0, 0);">
<rect width="100" height="100"/>
</g></g><g transform="translate(897,759) scale(0.69,0.69)"><g transform="" style="fill: rgb(0, 0, 0);">
<rect width="100" height="100"/>
</g></g><g transform="translate(1242,759) scale(0.69,0.69)"><g transform="" style="fill: rgb(0, 0, 0);">
<rect width="100" height="100"/>
</g></g><g transform="translate(1449,759) scale(0.69,0.69)"><g transform="" style="fill: rgb(0, 0, 0);">
<rect width="100" height="100"/>
</g></g><g transform="translate(1587,759) scale(0.69,0.69)"><g transform="" style="fill: rgb(0, 0, 0);">
<rect width="100" height="100"/>
</g></g><g transform="translate(1656,759) scale(0.69,0.69)"><g transform="" style="fill: rgb(0, 0, 0);">
<rect width="100" height="100"/>
</g></g><g transform="translate(1725,759) scale(0.69,0.69)"><g transform="" style="fill: rgb(0, 0, 0);">
<rect width="100" height="100"/>
</g></g><g transform="translate(276,828) scale(0.69,0.69)"><g transform="" style="fill: rgb(0, 0, 0);">
<rect width="100" height="100"/>
</g></g><g transform="translate(345,828) scale(0.69,0.69)"><g transform="" style="fill: rgb(0, 0, 0);">
<rect width="100" height="100"/>
</g></g><g transform="translate(414,828) scale(0.69,0.69)"><g transform="" style="fill: rgb(0, 0, 0);">
<rect width="100" height="100"/>
</g></g><g transform="translate(483,828) scale(0.69,0.69)"><g transform="" style="fill: rgb(0, 0, 0);">
<rect width="100" height="100"/>
</g></g><g transform="translate(621,828) scale(0.69,0.69)"><g transform="" style="fill: rgb(0, 0, 0);">
<rect width="100" height="100"/>
</g></g><g transform="translate(690,828) scale(0.69,0.69)"><g transform="" style="fill: rgb(0, 0, 0);">
<rect width="100" height="100"/>
</g></g><g transform="translate(897,828) scale(0.69,0.69)"><g transform="" style="fill: rgb(0, 0, 0);">
<rect width="100" height="100"/>
</g></g><g transform="translate(1035,828) scale(0.69,0.69)"><g transform="" style="fill: rgb(0, 0, 0);">
<rect width="100" height="100"/>
</g></g><g transform="translate(1104,828) scale(0.69,0.69)"><g transform="" style="fill: rgb(0, 0, 0);">
<rect width="100" height="100"/>
</g></g><g transform="translate(1380,828) scale(0.69,0.69)"><g transform="" style="fill: rgb(0, 0, 0);">
<rect width="100" height="100"/>
</g></g><g transform="translate(1518,828) scale(0.69,0.69)"><g transform="" style="fill: rgb(0, 0, 0);">
<rect width="100" height="100"/>
</g></g><g transform="translate(1587,828) scale(0.69,0.69)"><g transform="" style="fill: rgb(0, 0, 0);">
<rect width="100" height="100"/>
</g></g><g transform="translate(1932,828) scale(0.69,0.69)"><g transform="" style="fill: rgb(0, 0, 0);">
<rect width="100" height="100"/>
</g></g><g transform="translate(207,897) scale(0.69,0.69)"><g transform="" style="fill: rgb(0, 0, 0);">
<rect width="100" height="100"/>
</g></g><g transform="translate(276,897) scale(0.69,0.69)"><g transform="" style="fill: rgb(0, 0, 0);">
<rect width="100" height="100"/>
</g></g><g transform="translate(621,897) scale(0.69,0.69)"><g transform="" style="fill: rgb(0, 0, 0);">
<rect width="100" height="100"/>
</g></g><g transform="translate(759,897) scale(0.69,0.69)"><g transform="" style="fill: rgb(0, 0, 0);">
<rect width="100" height="100"/>
</g></g><g transform="translate(1104,897) scale(0.69,0.69)"><g transform="" style="fill: rgb(0, 0, 0);">
<rect width="100" height="100"/>
</g></g><g transform="translate(1173,897) scale(0.69,0.69)"><g transform="" style="fill: rgb(0, 0, 0);">
<rect width="100" height="100"/>
</g></g><g transform="translate(1311,897) scale(0.69,0.69)"><g transform="" style="fill: rgb(0, 0, 0);">
<rect width="100" height="100"/>
</g></g><g transform="translate(1380,897) scale(0.69,0.69)"><g transform="" style="fill: rgb(0, 0, 0);">
<rect width="100" height="100"/>
</g></g><g transform="translate(1518,897) scale(0.69,0.69)"><g transform="" style="fill: rgb(0, 0, 0);">
<rect width="100" height="100"/>
</g></g><g transform="translate(1863,897) scale(0.69,0.69)"><g transform="" style="fill: rgb(0, 0, 0);">
<rect width="100" height="100"/>
</g></g><g transform="translate(1932,897) scale(0.69,0.69)"><g transform="" style="fill: rgb(0, 0, 0);">
<rect width="100" height="100"/>
</g></g><g transform="translate(0,966) scale(0.69,0.69)"><g transform="" style="fill: rgb(0, 0, 0);">
<rect width="100" height="100"/>
</g></g><g transform="translate(69,966) scale(0.69,0.69)"><g transform="" style="fill: rgb(0, 0, 0);">
<rect width="100" height="100"/>
</g></g><g transform="translate(276,966) scale(0.69,0.69)"><g transform="" style="fill: rgb(0, 0, 0);">
<rect width="100" height="100"/>
</g></g><g transform="translate(414,966) scale(0.69,0.69)"><g transform="" style="fill: rgb(0, 0, 0);">
<rect width="100" height="100"/>
</g></g><g transform="translate(621,966) scale(0.69,0.69)"><g transform="" style="fill: rgb(0, 0, 0);">
<rect width="100" height="100"/>
</g></g><g transform="translate(828,966) scale(0.69,0.69)"><g transform="" style="fill: rgb(0, 0, 0);">
<rect width="100" height="100"/>
</g></g><g transform="translate(897,966) scale(0.69,0.69)"><g transform="" style="fill: rgb(0, 0, 0);">
<rect width="100" height="100"/>
</g></g><g transform="translate(966,966) scale(0.69,0.69)"><g transform="" style="fill: rgb(0, 0, 0);">
<rect width="100" height="100"/>
</g></g><g transform="translate(1104,966) scale(0.69,0.69)"><g transform="" style="fill: rgb(0, 0, 0);">
<rect width="100" height="100"/>
</g></g><g transform="translate(1311,966) scale(0.69,0.69)"><g transform="" style="fill: rgb(0, 0, 0);">
<rect width="100" height="100"/>
</g></g><g transform="translate(1380,966) scale(0.69,0.69)"><g transform="" style="fill: rgb(0, 0, 0);">
<rect width="100" height="100"/>
</g></g><g transform="translate(1518,966) scale(0.69,0.69)"><g transform="" style="fill: rgb(0, 0, 0);">
<rect width="100" height="100"/>
</g></g><g transform="translate(1932,966) scale(0.69,0.69)"><g transform="" style="fill: rgb(0, 0, 0);">
<rect width="100" height="100"/>
</g></g><g transform="translate(207,1035) scale(0.69,0.69)"><g transform="" style="fill: rgb(0, 0, 0);">
<rect width="100" height="100"/>
</g></g><g transform="translate(345,1035) scale(0.69,0.69)"><g transform="" style="fill: rgb(0, 0, 0);">
<rect width="100" height="100"/>
</g></g><g transform="translate(552,1035) scale(0.69,0.69)"><g transform="" style="fill: rgb(0, 0, 0);">
<rect width="100" height="100"/>
</g></g><g transform="translate(966,1035) scale(0.69,0.69)"><g transform="" style="fill: rgb(0, 0, 0);">
<rect width="100" height="100"/>
</g></g><g transform="translate(1035,1035) scale(0.69,0.69)"><g transform="" style="fill: rgb(0, 0, 0);">
<rect width="100" height="100"/>
</g></g><g transform="translate(1104,1035) scale(0.69,0.69)"><g transform="" style="fill: rgb(0, 0, 0);">
<rect width="100" height="100"/>
</g></g><g transform="translate(1242,1035) scale(0.69,0.69)"><g transform="" style="fill: rgb(0, 0, 0);">
<rect width="100" height="100"/>
</g></g><g transform="translate(1380,1035) scale(0.69,0.69)"><g transform="" style="fill: rgb(0, 0, 0);">
<rect width="100" height="100"/>
</g></g><g transform="translate(1449,1035) scale(0.69,0.69)"><g transform="" style="fill: rgb(0, 0, 0);">
<rect width="100" height="100"/>
</g></g><g transform="translate(1587,1035) scale(0.69,0.69)"><g transform="" style="fill: rgb(0, 0, 0);">
<rect width="100" height="100"/>
</g></g><g transform="translate(0,1104) scale(0.69,0.69)"><g transform="" style="fill: rgb(0, 0, 0);">
<rect width="100" height="100"/>
</g></g><g transform="translate(69,1104) scale(0.69,0.69)"><g transform="" style="fill: rgb(0, 0, 0);">
<rect width="100" height="100"/>
</g></g><g transform="translate(138,1104) scale(0.69,0.69)"><g transform="" style="fill: rgb(0, 0, 0);">
<rect width="100" height="100"/>
</g></g><g transform="translate(276,1104) scale(0.69,0.69)"><g transform="" style="fill: rgb(0, 0, 0);">
<rect width="100" height="100"/>
</g></g><g transform="translate(345,1104) scale(0.69,0.69)"><g transform="" style="fill: rgb(0, 0, 0);">
<rect width="100" height="100"/>
</g></g><g transform="translate(414,1104) scale(0.69,0.69)"><g transform="" style="fill: rgb(0, 0, 0);">
<rect width="100" height="100"/>
</g></g><g transform="translate(483,1104) scale(0.69,0.69)"><g transform="" style="fill: rgb(0, 0, 0);">
<rect width="100" height="100"/>
</g></g><g transform="translate(621,1104) scale(0.69,0.69)"><g transform="" style="fill: rgb(0, 0, 0);">
<rect width="100" height="100"/>
</g></g><g transform="translate(690,1104) scale(0.69,0.69)"><g transform="" style="fill: rgb(0, 0, 0);">
<rect width="100" height="100"/>
</g></g><g transform="translate(759,1104) scale(0.69,0.69)"><g transform="" style="fill: rgb(0, 0, 0);">
<rect width="100" height="100"/>
</g></g><g transform="translate(828,1104) scale(0.69,0.69)"><g transform="" style="fill: rgb(0, 0, 0);">
<rect width="100" height="100"/>
</g></g><g transform="translate(897,1104) scale(0.69,0.69)"><g transform="" style="fill: rgb(0, 0, 0);">
<rect width="100" height="100"/>
</g></g><g transform="translate(966,1104) scale(0.69,0.69)"><g transform="" style="fill: rgb(0, 0, 0);">
<rect width="100" height="100"/>
</g></g><g transform="translate(1104,1104) scale(0.69,0.69)"><g transform="" style="fill: rgb(0, 0, 0);">
<rect width="100" height="100"/>
</g></g><g transform="translate(1380,1104) scale(0.69,0.69)"><g transform="" style="fill: rgb(0, 0, 0);">
<rect width="100" height="100"/>
</g></g><g transform="translate(1518,1104) scale(0.69,0.69)"><g transform="" style="fill: rgb(0, 0, 0);">
<rect width="100" height="100"/>
</g></g><g transform="translate(1932,1104) scale(0.69,0.69)"><g transform="" style="fill: rgb(0, 0, 0);">
<rect width="100" height="100"/>
</g></g><g transform="translate(69,1173) scale(0.69,0.69)"><g transform="" style="fill: rgb(0, 0, 0);">
<rect width="100" height="100"/>
</g></g><g transform="translate(276,1173) scale(0.69,0.69)"><g transform="" style="fill: rgb(0, 0, 0);">
<rect width="100" height="100"/>
</g></g><g transform="translate(483,1173) scale(0.69,0.69)"><g transform="" style="fill: rgb(0, 0, 0);">
<rect width="100" height="100"/>
</g></g><g transform="translate(552,1173) scale(0.69,0.69)"><g transform="" style="fill: rgb(0, 0, 0);">
<rect width="100" height="100"/>
</g></g><g transform="translate(621,1173) scale(0.69,0.69)"><g transform="" style="fill: rgb(0, 0, 0);">
<rect width="100" height="100"/>
</g></g><g transform="translate(759,1173) scale(0.69,0.69)"><g transform="" style="fill: rgb(0, 0, 0);">
<rect width="100" height="100"/>
</g></g><g transform="translate(897,1173) scale(0.69,0.69)"><g transform="" style="fill: rgb(0, 0, 0);">
<rect width="100" height="100"/>
</g></g><g transform="translate(966,1173) scale(0.69,0.69)"><g transform="" style="fill: rgb(0, 0, 0);">
<rect width="100" height="100"/>
</g></g><g transform="translate(1173,1173) scale(0.69,0.69)"><g transform="" style="fill: rgb(0, 0, 0);">
<rect width="100" height="100"/>
</g></g><g transform="translate(1311,1173) scale(0.69,0.69)"><g transform="" style="fill: rgb(0, 0, 0);">
<rect width="100" height="100"/>
</g></g><g transform="translate(1380,1173) scale(0.69,0.69)"><g transform="" style="fill: rgb(0, 0, 0);">
<rect width="100" height="100"/>
</g></g><g transform="translate(1518,1173) scale(0.69,0.69)"><g transform="" style="fill: rgb(0, 0, 0);">
<rect width="100" height="100"/>
</g></g><g transform="translate(1587,1173) scale(0.69,0.69)"><g transform="" style="fill: rgb(0, 0, 0);">
<rect width="100" height="100"/>
</g></g><g transform="translate(1794,1173) scale(0.69,0.69)"><g transform="" style="fill: rgb(0, 0, 0);">
<rect width="100" height="100"/>
</g></g><g transform="translate(1863,1173) scale(0.69,0.69)"><g transform="" style="fill: rgb(0, 0, 0);">
<rect width="100" height="100"/>
</g></g><g transform="translate(1932,1173) scale(0.69,0.69)"><g transform="" style="fill: rgb(0, 0, 0);">
<rect width="100" height="100"/>
</g></g><g transform="translate(0,1242) scale(0.69,0.69)"><g transform="" style="fill: rgb(0, 0, 0);">
<rect width="100" height="100"/>
</g></g><g transform="translate(69,1242) scale(0.69,0.69)"><g transform="" style="fill: rgb(0, 0, 0);">
<rect width="100" height="100"/>
</g></g><g transform="translate(276,1242) scale(0.69,0.69)"><g transform="" style="fill: rgb(0, 0, 0);">
<rect width="100" height="100"/>
</g></g><g transform="translate(345,1242) scale(0.69,0.69)"><g transform="" style="fill: rgb(0, 0, 0);">
<rect width="100" height="100"/>
</g></g><g transform="translate(414,1242) scale(0.69,0.69)"><g transform="" style="fill: rgb(0, 0, 0);">
<rect width="100" height="100"/>
</g></g><g transform="translate(483,1242) scale(0.69,0.69)"><g transform="" style="fill: rgb(0, 0, 0);">
<rect width="100" height="100"/>
</g></g><g transform="translate(621,1242) scale(0.69,0.69)"><g transform="" style="fill: rgb(0, 0, 0);">
<rect width="100" height="100"/>
</g></g><g transform="translate(690,1242) scale(0.69,0.69)"><g transform="" style="fill: rgb(0, 0, 0);">
<rect width="100" height="100"/>
</g></g><g transform="translate(759,1242) scale(0.69,0.69)"><g transform="" style="fill: rgb(0, 0, 0);">
<rect width="100" height="100"/>
</g></g><g transform="translate(1035,1242) scale(0.69,0.69)"><g transform="" style="fill: rgb(0, 0, 0);">
<rect width="100" height="100"/>
</g></g><g transform="translate(1104,1242) scale(0.69,0.69)"><g transform="" style="fill: rgb(0, 0, 0);">
<rect width="100" height="100"/>
</g></g><g transform="translate(1173,1242) scale(0.69,0.69)"><g transform="" style="fill: rgb(0, 0, 0);">
<rect width="100" height="100"/>
</g></g><g transform="translate(1311,1242) scale(0.69,0.69)"><g transform="" style="fill: rgb(0, 0, 0);">
<rect width="100" height="100"/>
</g></g><g transform="translate(1725,1242) scale(0.69,0.69)"><g transform="" style="fill: rgb(0, 0, 0);">
<rect width="100" height="100"/>
</g></g><g transform="translate(1932,1242) scale(0.69,0.69)"><g transform="" style="fill: rgb(0, 0, 0);">
<rect width="100" height="100"/>
</g></g><g transform="translate(276,1311) scale(0.69,0.69)"><g transform="" style="fill: rgb(0, 0, 0);">
<rect width="100" height="100"/>
</g></g><g transform="translate(345,1311) scale(0.69,0.69)"><g transform="" style="fill: rgb(0, 0, 0);">
<rect width="100" height="100"/>
</g></g><g transform="translate(621,1311) scale(0.69,0.69)"><g transform="" style="fill: rgb(0, 0, 0);">
<rect width="100" height="100"/>
</g></g><g transform="translate(690,1311) scale(0.69,0.69)"><g transform="" style="fill: rgb(0, 0, 0);">
<rect width="100" height="100"/>
</g></g><g transform="translate(828,1311) scale(0.69,0.69)"><g transform="" style="fill: rgb(0, 0, 0);">
<rect width="100" height="100"/>
</g></g><g transform="translate(897,1311) scale(0.69,0.69)"><g transform="" style="fill: rgb(0, 0, 0);">
<rect width="100" height="100"/>
</g></g><g transform="translate(1104,1311) scale(0.69,0.69)"><g transform="" style="fill: rgb(0, 0, 0);">
<rect width="100" height="100"/>
</g></g><g transform="translate(1242,1311) scale(0.69,0.69)"><g transform="" style="fill: rgb(0, 0, 0);">
<rect width="100" height="100"/>
</g></g><g transform="translate(1449,1311) scale(0.69,0.69)"><g transform="" style="fill: rgb(0, 0, 0);">
<rect width="100" height="100"/>
</g></g><g transform="translate(1587,1311) scale(0.69,0.69)"><g transform="" style="fill: rgb(0, 0, 0);">
<rect width="100" height="100"/>
</g></g><g transform="translate(0,1380) scale(0.69,0.69)"><g transform="" style="fill: rgb(0, 0, 0);">
<rect width="100" height="100"/>
</g></g><g transform="translate(69,1380) scale(0.69,0.69)"><g transform="" style="fill: rgb(0, 0, 0);">
<rect width="100" height="100"/>
</g></g><g transform="translate(207,1380) scale(0.69,0.69)"><g transform="" style="fill: rgb(0, 0, 0);">
<rect width="100" height="100"/>
</g></g><g transform="translate(276,1380) scale(0.69,0.69)"><g transform="" style="fill: rgb(0, 0, 0);">
<rect width="100" height="100"/>
</g></g><g transform="translate(414,1380) scale(0.69,0.69)"><g transform="" style="fill: rgb(0, 0, 0);">
<rect width="100" height="100"/>
</g></g><g transform="translate(483,1380) scale(0.69,0.69)"><g transform="" style="fill: rgb(0, 0, 0);">
<rect width="100" height="100"/>
</g></g><g transform="translate(690,1380) scale(0.69,0.69)"><g transform="" style="fill: rgb(0, 0, 0);">
<rect width="100" height="100"/>
</g></g><g transform="translate(759,1380) scale(0.69,0.69)"><g transform="" style="fill: rgb(0, 0, 0);">
<rect width="100" height="100"/>
</g></g><g transform="translate(897,1380) scale(0.69,0.69)"><g transform="" style="fill: rgb(0, 0, 0);">
<rect width="100" height="100"/>
</g></g><g transform="translate(1035,1380) scale(0.69,0.69)"><g transform="" style="fill: rgb(0, 0, 0);">
<rect width="100" height="100"/>
</g></g><g transform="translate(1242,1380) scale(0.69,0.69)"><g transform="" style="fill: rgb(0, 0, 0);">
<rect width="100" height="100"/>
</g></g><g transform="translate(1380,1380) scale(0.69,0.69)"><g transform="" style="fill: rgb(0, 0, 0);">
<rect width="100" height="100"/>
</g></g><g transform="translate(1449,1380) scale(0.69,0.69)"><g transform="" style="fill: rgb(0, 0, 0);">
<rect width="100" height="100"/>
</g></g><g transform="translate(1518,1380) scale(0.69,0.69)"><g transform="" style="fill: rgb(0, 0, 0);">
<rect width="100" height="100"/>
</g></g><g transform="translate(1587,1380) scale(0.69,0.69)"><g transform="" style="fill: rgb(0, 0, 0);">
<rect width="100" height="100"/>
</g></g><g transform="translate(1656,1380) scale(0.69,0.69)"><g transform="" style="fill: rgb(0, 0, 0);">
<rect width="100" height="100"/>
</g></g><g transform="translate(1725,1380) scale(0.69,0.69)"><g transform="" style="fill: rgb(0, 0, 0);">
<rect width="100" height="100"/>
</g></g><g transform="translate(1863,1380) scale(0.69,0.69)"><g transform="" style="fill: rgb(0, 0, 0);">
<rect width="100" height="100"/>
</g></g><g transform="translate(552,1449) scale(0.69,0.69)"><g transform="" style="fill: rgb(0, 0, 0);">
<rect width="100" height="100"/>
</g></g><g transform="translate(621,1449) scale(0.69,0.69)"><g transform="" style="fill: rgb(0, 0, 0);">
<rect width="100" height="100"/>
</g></g><g transform="translate(690,1449) scale(0.69,0.69)"><g transform="" style="fill: rgb(0, 0, 0);">
<rect width="100" height="100"/>
</g></g><g transform="translate(759,1449) scale(0.69,0.69)"><g transform="" style="fill: rgb(0, 0, 0);">
<rect width="100" height="100"/>
</g></g><g transform="translate(828,1449) scale(0.69,0.69)"><g transform="" style="fill: rgb(0, 0, 0);">
<rect width="100" height="100"/>
</g></g><g transform="translate(1035,1449) scale(0.69,0.69)"><g transform="" style="fill: rgb(0, 0, 0);">
<rect width="100" height="100"/>
</g></g><g transform="translate(1173,1449) scale(0.69,0.69)"><g transform="" style="fill: rgb(0, 0, 0);">
<rect width="100" height="100"/>
</g></g><g transform="translate(1311,1449) scale(0.69,0.69)"><g transform="" style="fill: rgb(0, 0, 0);">
<rect width="100" height="100"/>
</g></g><g transform="translate(1380,1449) scale(0.69,0.69)"><g transform="" style="fill: rgb(0, 0, 0);">
<rect width="100" height="100"/>
</g></g><g transform="translate(1656,1449) scale(0.69,0.69)"><g transform="" style="fill: rgb(0, 0, 0);">
<rect width="100" height="100"/>
</g></g><g transform="translate(1725,1449) scale(0.69,0.69)"><g transform="" style="fill: rgb(0, 0, 0);">
<rect width="100" height="100"/>
</g></g><g transform="translate(1794,1449) scale(0.69,0.69)"><g transform="" style="fill: rgb(0, 0, 0);">
<rect width="100" height="100"/>
</g></g><g transform="translate(1932,1449) scale(0.69,0.69)"><g transform="" style="fill: rgb(0, 0, 0);">
<rect width="100" height="100"/>
</g></g><g transform="translate(552,1518) scale(0.69,0.69)"><g transform="" style="fill: rgb(0, 0, 0);">
<rect width="100" height="100"/>
</g></g><g transform="translate(621,1518) scale(0.69,0.69)"><g transform="" style="fill: rgb(0, 0, 0);">
<rect width="100" height="100"/>
</g></g><g transform="translate(690,1518) scale(0.69,0.69)"><g transform="" style="fill: rgb(0, 0, 0);">
<rect width="100" height="100"/>
</g></g><g transform="translate(759,1518) scale(0.69,0.69)"><g transform="" style="fill: rgb(0, 0, 0);">
<rect width="100" height="100"/>
</g></g><g transform="translate(828,1518) scale(0.69,0.69)"><g transform="" style="fill: rgb(0, 0, 0);">
<rect width="100" height="100"/>
</g></g><g transform="translate(897,1518) scale(0.69,0.69)"><g transform="" style="fill: rgb(0, 0, 0);">
<rect width="100" height="100"/>
</g></g><g transform="translate(966,1518) scale(0.69,0.69)"><g transform="" style="fill: rgb(0, 0, 0);">
<rect width="100" height="100"/>
</g></g><g transform="translate(1035,1518) scale(0.69,0.69)"><g transform="" style="fill: rgb(0, 0, 0);">
<rect width="100" height="100"/>
</g></g><g transform="translate(1380,1518) scale(0.69,0.69)"><g transform="" style="fill: rgb(0, 0, 0);">
<rect width="100" height="100"/>
</g></g><g transform="translate(1518,1518) scale(0.69,0.69)"><g transform="" style="fill: rgb(0, 0, 0);">
<rect width="100" height="100"/>
</g></g><g transform="translate(1656,1518) scale(0.69,0.69)"><g transform="" style="fill: rgb(0, 0, 0);">
<rect width="100" height="100"/>
</g></g><g transform="translate(1932,1518) scale(0.69,0.69)"><g transform="" style="fill: rgb(0, 0, 0);">
<rect width="100" height="100"/>
</g></g><g transform="translate(690,1587) scale(0.69,0.69)"><g transform="" style="fill: rgb(0, 0, 0);">
<rect width="100" height="100"/>
</g></g><g transform="translate(759,1587) scale(0.69,0.69)"><g transform="" style="fill: rgb(0, 0, 0);">
<rect width="100" height="100"/>
</g></g><g transform="translate(828,1587) scale(0.69,0.69)"><g transform="" style="fill: rgb(0, 0, 0);">
<rect width="100" height="100"/>
</g></g><g transform="translate(966,1587) scale(0.69,0.69)"><g transform="" style="fill: rgb(0, 0, 0);">
<rect width="100" height="100"/>
</g></g><g transform="translate(1035,1587) scale(0.69,0.69)"><g transform="" style="fill: rgb(0, 0, 0);">
<rect width="100" height="100"/>
</g></g><g transform="translate(1242,1587) scale(0.69,0.69)"><g transform="" style="fill: rgb(0, 0, 0);">
<rect width="100" height="100"/>
</g></g><g transform="translate(1311,1587) scale(0.69,0.69)"><g transform="" style="fill: rgb(0, 0, 0);">
<rect width="100" height="100"/>
</g></g><g transform="translate(1380,1587) scale(0.69,0.69)"><g transform="" style="fill: rgb(0, 0, 0);">
<rect width="100" height="100"/>
</g></g><g transform="translate(1656,1587) scale(0.69,0.69)"><g transform="" style="fill: rgb(0, 0, 0);">
<rect width="100" height="100"/>
</g></g><g transform="translate(621,1656) scale(0.69,0.69)"><g transform="" style="fill: rgb(0, 0, 0);">
<rect width="100" height="100"/>
</g></g><g transform="translate(690,1656) scale(0.69,0.69)"><g transform="" style="fill: rgb(0, 0, 0);">
<rect width="100" height="100"/>
</g></g><g transform="translate(759,1656) scale(0.69,0.69)"><g transform="" style="fill: rgb(0, 0, 0);">
<rect width="100" height="100"/>
</g></g><g transform="translate(828,1656) scale(0.69,0.69)"><g transform="" style="fill: rgb(0, 0, 0);">
<rect width="100" height="100"/>
</g></g><g transform="translate(897,1656) scale(0.69,0.69)"><g transform="" style="fill: rgb(0, 0, 0);">
<rect width="100" height="100"/>
</g></g><g transform="translate(966,1656) scale(0.69,0.69)"><g transform="" style="fill: rgb(0, 0, 0);">
<rect width="100" height="100"/>
</g></g><g transform="translate(1035,1656) scale(0.69,0.69)"><g transform="" style="fill: rgb(0, 0, 0);">
<rect width="100" height="100"/>
</g></g><g transform="translate(1242,1656) scale(0.69,0.69)"><g transform="" style="fill: rgb(0, 0, 0);">
<rect width="100" height="100"/>
</g></g><g transform="translate(1311,1656) scale(0.69,0.69)"><g transform="" style="fill: rgb(0, 0, 0);">
<rect width="100" height="100"/>
</g></g><g transform="translate(1380,1656) scale(0.69,0.69)"><g transform="" style="fill: rgb(0, 0, 0);">
<rect width="100" height="100"/>
</g></g><g transform="translate(1449,1656) scale(0.69,0.69)"><g transform="" style="fill: rgb(0, 0, 0);">
<rect width="100" height="100"/>
</g></g><g transform="translate(1518,1656) scale(0.69,0.69)"><g transform="" style="fill: rgb(0, 0, 0);">
<rect width="100" height="100"/>
</g></g><g transform="translate(1587,1656) scale(0.69,0.69)"><g transform="" style="fill: rgb(0, 0, 0);">
<rect width="100" height="100"/>
</g></g><g transform="translate(1656,1656) scale(0.69,0.69)"><g transform="" style="fill: rgb(0, 0, 0);">
<rect width="100" height="100"/>
</g></g><g transform="translate(1725,1656) scale(0.69,0.69)"><g transform="" style="fill: rgb(0, 0, 0);">
<rect width="100" height="100"/>
</g></g><g transform="translate(1863,1656) scale(0.69,0.69)"><g transform="" style="fill: rgb(0, 0, 0);">
<rect width="100" height="100"/>
</g></g><g transform="translate(1932,1656) scale(0.69,0.69)"><g transform="" style="fill: rgb(0, 0, 0);">
<rect width="100" height="100"/>
</g></g><g transform="translate(621,1725) scale(0.69,0.69)"><g transform="" style="fill: rgb(0, 0, 0);">
<rect width="100" height="100"/>
</g></g><g transform="translate(690,1725) scale(0.69,0.69)"><g transform="" style="fill: rgb(0, 0, 0);">
<rect width="100" height="100"/>
</g></g><g transform="translate(759,1725) scale(0.69,0.69)"><g transform="" style="fill: rgb(0, 0, 0);">
<rect width="100" height="100"/>
</g></g><g transform="translate(828,1725) scale(0.69,0.69)"><g transform="" style="fill: rgb(0, 0, 0);">
<rect width="100" height="100"/>
</g></g><g transform="translate(897,1725) scale(0.69,0.69)"><g transform="" style="fill: rgb(0, 0, 0);">
<rect width="100" height="100"/>
</g></g><g transform="translate(966,1725) scale(0.69,0.69)"><g transform="" style="fill: rgb(0, 0, 0);">
<rect width="100" height="100"/>
</g></g><g transform="translate(1035,1725) scale(0.69,0.69)"><g transform="" style="fill: rgb(0, 0, 0);">
<rect width="100" height="100"/>
</g></g><g transform="translate(1242,1725) scale(0.69,0.69)"><g transform="" style="fill: rgb(0, 0, 0);">
<rect width="100" height="100"/>
</g></g><g transform="translate(1380,1725) scale(0.69,0.69)"><g transform="" style="fill: rgb(0, 0, 0);">
<rect width="100" height="100"/>
</g></g><g transform="translate(1449,1725) scale(0.69,0.69)"><g transform="" style="fill: rgb(0, 0, 0);">
<rect width="100" height="100"/>
</g></g><g transform="translate(1587,1725) scale(0.69,0.69)"><g transform="" style="fill: rgb(0, 0, 0);">
<rect width="100" height="100"/>
</g></g><g transform="translate(1656,1725) scale(0.69,0.69)"><g transform="" style="fill: rgb(0, 0, 0);">
<rect width="100" height="100"/>
</g></g><g transform="translate(1725,1725) scale(0.69,0.69)"><g transform="" style="fill: rgb(0, 0, 0);">
<rect width="100" height="100"/>
</g></g><g transform="translate(1794,1725) scale(0.69,0.69)"><g transform="" style="fill: rgb(0, 0, 0);">
<rect width="100" height="100"/>
</g></g><g transform="translate(1932,1725) scale(0.69,0.69)"><g transform="" style="fill: rgb(0, 0, 0);">
<rect width="100" height="100"/>
</g></g><g transform="translate(552,1794) scale(0.69,0.69)"><g transform="" style="fill: rgb(0, 0, 0);">
<rect width="100" height="100"/>
</g></g><g transform="translate(621,1794) scale(0.69,0.69)"><g transform="" style="fill: rgb(0, 0, 0);">
<rect width="100" height="100"/>
</g></g><g transform="translate(690,1794) scale(0.69,0.69)"><g transform="" style="fill: rgb(0, 0, 0);">
<rect width="100" height="100"/>
</g></g><g transform="translate(1035,1794) scale(0.69,0.69)"><g transform="" style="fill: rgb(0, 0, 0);">
<rect width="100" height="100"/>
</g></g><g transform="translate(1242,1794) scale(0.69,0.69)"><g transform="" style="fill: rgb(0, 0, 0);">
<rect width="100" height="100"/>
</g></g><g transform="translate(1311,1794) scale(0.69,0.69)"><g transform="" style="fill: rgb(0, 0, 0);">
<rect width="100" height="100"/>
</g></g><g transform="translate(1380,1794) scale(0.69,0.69)"><g transform="" style="fill: rgb(0, 0, 0);">
<rect width="100" height="100"/>
</g></g><g transform="translate(1449,1794) scale(0.69,0.69)"><g transform="" style="fill: rgb(0, 0, 0);">
<rect width="100" height="100"/>
</g></g><g transform="translate(1656,1794) scale(0.69,0.69)"><g transform="" style="fill: rgb(0, 0, 0);">
<rect width="100" height="100"/>
</g></g><g transform="translate(1863,1794) scale(0.69,0.69)"><g transform="" style="fill: rgb(0, 0, 0);">
<rect width="100" height="100"/>
</g></g><g transform="translate(1932,1794) scale(0.69,0.69)"><g transform="" style="fill: rgb(0, 0, 0);">
<rect width="100" height="100"/>
</g></g><g transform="translate(621,1863) scale(0.69,0.69)"><g transform="" style="fill: rgb(0, 0, 0);">
<rect width="100" height="100"/>
</g></g><g transform="translate(759,1863) scale(0.69,0.69)"><g transform="" style="fill: rgb(0, 0, 0);">
<rect width="100" height="100"/>
</g></g><g transform="translate(828,1863) scale(0.69,0.69)"><g transform="" style="fill: rgb(0, 0, 0);">
<rect width="100" height="100"/>
</g></g><g transform="translate(966,1863) scale(0.69,0.69)"><g transform="" style="fill: rgb(0, 0, 0);">
<rect width="100" height="100"/>
</g></g><g transform="translate(1104,1863) scale(0.69,0.69)"><g transform="" style="fill: rgb(0, 0, 0);">
<rect width="100" height="100"/>
</g></g><g transform="translate(1311,1863) scale(0.69,0.69)"><g transform="" style="fill: rgb(0, 0, 0);">
<rect width="100" height="100"/>
</g></g><g transform="translate(1380,1863) scale(0.69,0.69)"><g transform="" style="fill: rgb(0, 0, 0);">
<rect width="100" height="100"/>
</g></g><g transform="translate(1449,1863) scale(0.69,0.69)"><g transform="" style="fill: rgb(0, 0, 0);">
<rect width="100" height="100"/>
</g></g><g transform="translate(1518,1863) scale(0.69,0.69)"><g transform="" style="fill: rgb(0, 0, 0);">
<rect width="100" height="100"/>
</g></g><g transform="translate(1587,1863) scale(0.69,0.69)"><g transform="" style="fill: rgb(0, 0, 0);">
<rect width="100" height="100"/>
</g></g><g transform="translate(1656,1863) scale(0.69,0.69)"><g transform="" style="fill: rgb(0, 0, 0);">
<rect width="100" height="100"/>
</g></g><g transform="translate(1725,1863) scale(0.69,0.69)"><g transform="" style="fill: rgb(0, 0, 0);">
<rect width="100" height="100"/>
</g></g><g transform="translate(552,1932) scale(0.69,0.69)"><g transform="" style="fill: rgb(0, 0, 0);">
<rect width="100" height="100"/>
</g></g><g transform="translate(621,1932) scale(0.69,0.69)"><g transform="" style="fill: rgb(0, 0, 0);">
<rect width="100" height="100"/>
</g></g><g transform="translate(690,1932) scale(0.69,0.69)"><g transform="" style="fill: rgb(0, 0, 0);">
<rect width="100" height="100"/>
</g></g><g transform="translate(828,1932) scale(0.69,0.69)"><g transform="" style="fill: rgb(0, 0, 0);">
<rect width="100" height="100"/>
</g></g><g transform="translate(966,1932) scale(0.69,0.69)"><g transform="" style="fill: rgb(0, 0, 0);">
<rect width="100" height="100"/>
</g></g><g transform="translate(1035,1932) scale(0.69,0.69)"><g transform="" style="fill: rgb(0, 0, 0);">
<rect width="100" height="100"/>
</g></g><g transform="translate(1242,1932) scale(0.69,0.69)"><g transform="" style="fill: rgb(0, 0, 0);">
<rect width="100" height="100"/>
</g></g><g transform="translate(1380,1932) scale(0.69,0.69)"><g transform="" style="fill: rgb(0, 0, 0);">
<rect width="100" height="100"/>
</g></g><g transform="translate(1656,1932) scale(0.69,0.69)"><g transform="" style="fill: rgb(0, 0, 0);">
<rect width="100" height="100"/>
</g></g><g transform="translate(1932,1932) scale(0.69,0.69)"><g transform="" style="fill: rgb(0, 0, 0);">
<rect width="100" height="100"/>
</g></g><g transform="translate(0,0) scale(4.83, 4.83)"><g transform="" style="fill: rgb(0, 0, 0);">
<g>
	<rect x="15" y="15" style="fill:none;" width="70" height="70"/>
	<path d="M85,0H15H0v15v70v15h15h70h15V85V15V0H85z M85,85H15V15h70V85z"/>
</g>
</g></g><g transform="translate(1518,0) scale(4.83, 4.83)"><g transform="" style="fill: rgb(0, 0, 0);">
<g>
	<rect x="15" y="15" style="fill:none;" width="70" height="70"/>
	<path d="M85,0H15H0v15v70v15h15h70h15V85V15V0H85z M85,85H15V15h70V85z"/>
</g>
</g></g><g transform="translate(0,1518) scale(4.83, 4.83)"><g transform="" style="fill: rgb(0, 0, 0);">
<g>
	<rect x="15" y="15" style="fill:none;" width="70" height="70"/>
	<path d="M85,0H15H0v15v70v15h15h70h15V85V15V0H85z M85,85H15V15h70V85z"/>
</g>
</g></g><g transform="translate(138,138) scale(2.07, 2.07)"><g transform="" style="fill: rgb(0, 0, 0);">
<rect width="100" height="100"/>
</g></g><g transform="translate(1656,138) scale(2.07, 2.07)"><g transform="" style="fill: rgb(0, 0, 0);">
<rect width="100" height="100"/>
</g></g><g transform="translate(138,1656) scale(2.07, 2.07)"><g transform="" style="fill: rgb(0, 0, 0);">
<rect width="100" height="100"/>
</g></g></g></svg>